<svg class="icon" xmlns="http://www.w3.org/2000/svg" width="21.1" height="21.1" viewBox="0 0 21.1 21.1">
  <path fill="#797C7C" d="M10.6 21.1C4.7 21.1 0 16.4 0 10.6S4.7 0 10.6 0s10.6 4.7 10.6 10.6-4.8 10.5-10.6 10.5zm0-20c-5.2 0-9.4 4.2-9.4 9.4S5.3 20 10.6 20s9.4-4.2 9.4-9.4-4.2-9.5-9.4-9.5z"/>
  <path fill="#797C7C" d="M13.7 10V7.4c0-1.7-1.4-3.2-3.2-3.2S7.4 5.6 7.4 7.4V10c-.5.3-.8.8-.8 1.4V16.2c0 .4.4.8.8.8h6.3c.4 0 .8-.4.8-.8V11.4c0-.6-.3-1.2-.8-1.4zM8.2 7.4c0-1.3 1-2.4 2.4-2.4S13 6.1 13 7.4v2.4h-.8V7.4c0-.9-.7-1.6-1.6-1.6S9 6.5 9 7.4v2.4h-.8V7.4zm3.1 2.4H9.8V7.4c0-.4.4-.8.8-.8s.8.4.8.8v2.4zm-3.1.7h4.7c.4 0 .8.4.8.8v2.8H7.4v-2.8c0-.4.3-.8.8-.8zm5.5 5.6H7.4v-1.6h6.3v1.6z"/>
</svg>