<svg class="icon" xmlns="http://www.w3.org/2000/svg" width="24.4" height="24.4" viewBox="0 0 24.4 24.4">
    <path fill="#797C7C" d="M12.2 1.5c2.9 0 5.5 1.1 7.5 3.1s3.1 4.7 3.1 7.5-1.1 5.5-3.1 7.5-4.7 3.1-7.5 3.1-5.5-1.1-7.5-3.1-3.1-4.7-3.1-7.5 1.1-5.5 3.1-7.5 4.6-3.1 7.5-3.1m0-1.5C5.5 0 0 5.5 0 12.2s5.5 12.2 12.2 12.2 12.2-5.5 12.2-12.2S18.9 0 12.2 0zm2.2 12.2l3.5-3.5c.6-.6.6-1.6 0-2.2-.6-.6-1.6-.6-2.2 0L12.2 10 8.7 6.5c-.6-.6-1.6-.6-2.2 0-.6.6-.6 1.6 0 2.2l3.5 3.5-3.5 3.5c-.6.6-.6 1.6 0 2.2.3.3.7.4 1.1.4.4 0 .8-.1 1.1-.4l3.5-3.5 3.5 3.5c.3.3.7.4 1.1.4s.8-.1 1.1-.4c.6-.6.6-1.6 0-2.2l-3.5-3.5z"/>
</svg>