<svg class="icon" xmlns="http://www.w3.org/2000/svg" width="21.1" height="21.1" viewBox="0 0 21.1 21.1">
    <path fill="#797C7C" d="M9.2 15.8c-.3 0-.7-.1-.9-.4-.5-.5-.5-1.4 0-1.9l3-3-3-3c-.5-.5-.5-1.3 0-1.8s1.4-.5 1.9 0l4 4c.5.5.5 1.4 0 1.9l-4 4c-.3.1-.6.2-1 .2zm1.4-14.5C8.1 1.3 5.8 2.3 4 4c-1.7 1.7-2.7 4.1-2.7 6.5s1 4.8 2.7 6.5c1.7 1.7 4.1 2.7 6.5 2.7s4.8-1 6.5-2.7c1.7-1.7 2.7-4.1 2.7-6.5S18.7 5.7 17 4c-1.7-1.7-4-2.7-6.4-2.7m0-1.3c5.8 0 10.6 4.7 10.6 10.6s-4.7 10.6-10.6 10.6S0 16.4 0 10.6 4.7 0 10.6 0z"/>
</svg>