<svg class="icon" xmlns="http://www.w3.org/2000/svg" width="24.4" height="24.4" viewBox="0 0 24.4 24.4">
    <path fill="#797C7C" d="M12.2 1.5c2.9 0 5.5 1.1 7.5 3.1s3.1 4.7 3.1 7.5-1.1 5.5-3.1 7.5-4.7 3.1-7.5 3.1-5.5-1.1-7.5-3.1-3.1-4.7-3.1-7.5 1.1-5.5 3.1-7.5 4.6-3.1 7.5-3.1m0-1.5C5.5 0 0 5.5 0 12.2s5.5 12.2 12.2 12.2 12.2-5.5 12.2-12.2S18.9 0 12.2 0z"/><path fill="#797C7C" d="M12.2 5.7c1.2 0 2.2 1 2.2 2.2v1.8c0 .7-1.8 3.1-1.8 3.1 2.3.1 4.4 1.3 5.7 3v.9H6.1v-.9c1.3-1.8 3.4-2.9 5.7-3 0 0-1.8-2.3-1.8-3.1V7.9c0-1.2 1-2.2 2.2-2.2m0-.8c-1.7 0-3.1 1.4-3.1 3.1v1.8c0 .3.1.9 1 2.3l.1.1c-1.9.5-3.7 1.6-4.9 3.2-.1.2-.2.3-.2.5v.9c0 .5.4.9.9.9h12.2c.5 0 .9-.4.9-.9v-.9c0-.2-.1-.4-.2-.5-1.2-1.6-2.9-2.7-4.9-3.2l.1-.1c.9-1.4 1-1.9 1-2.3V7.9c.2-1.7-1.2-3-2.9-3z"/>
</svg>