<svg class="icon" xmlns="http://www.w3.org/2000/svg" width="21.1" height="21.1" viewBox="0 0 21.1 21.1">
  <path fill="#797C7C" d="M10.6 1.3c2.5 0 4.8 1 6.5 2.7s2.7 4.1 2.7 6.5-1 4.8-2.7 6.5c-1.7 1.7-4.1 2.7-6.5 2.7s-4.8-1-6.5-2.7c-1.7-1.7-2.7-4.1-2.7-6.5S2.3 5.8 4 4s4.1-2.7 6.6-2.7m0-1.3C4.7 0 0 4.7 0 10.6s4.7 10.6 10.6 10.6 10.6-4.7 10.6-10.6S16.4 0 10.6 0zm0 17.1c.7 0 1.3-.6 1.3-1.3 0-.7-.6-1.3-1.3-1.3-.7 0-1.3.6-1.3 1.3-.1.8.5 1.3 1.3 1.3zm4.6-9.2c0-2.2-2.1-4-4.6-4-1.5.1-2.8.6-3.6 1.5-.5.6-.5 1.4 0 1.9s1.4.5 1.9-.1c.4-.4 1-.6 1.7-.6 1.1 0 2 .6 2 1.3s-.9 1.3-2 1.3c-.7 0-1.3.6-1.3 1.3v1.3c0 .7.6 1.3 1.3 1.3s1.3-.6 1.3-1.3v-.2c1.9-.4 3.3-1.9 3.3-3.7z"/>
</svg>