<svg class="icon" xmlns="http://www.w3.org/2000/svg" width="21.1" height="21.1" viewBox="0 0 21.1 21.1">
    <path fill="#797C7C" d="M10.6 1.3c2.5 0 4.8 1 6.5 2.7 1.7 1.7 2.7 4.1 2.7 6.5s-1 4.8-2.7 6.5c-1.7 1.7-4.1 2.7-6.5 2.7s-4.8-1-6.5-2.7c-1.7-1.7-2.7-4.1-2.7-6.5S2.3 5.8 4 4s4.1-2.7 6.6-2.7m0-1.3C4.7 0 0 4.7 0 10.6s4.7 10.6 10.6 10.6 10.6-4.7 10.6-10.6S16.4 0 10.6 0zm5.2 9.2h-4v-4c0-.7-.6-1.3-1.3-1.3s-1.3.6-1.3 1.4v4h-4c-.7-.1-1.2.5-1.2 1.3 0 .7.6 1.3 1.3 1.3h4v4c0 .7.6 1.3 1.3 1.3s1.3-.6 1.3-1.3v-4h4c.7 0 1.3-.6 1.3-1.3-.1-.8-.6-1.4-1.4-1.4z"/>
</svg>