<svg class="icon" xmlns="http://www.w3.org/2000/svg" width="21.1" height="21.1" viewBox="0 0 21.1 21.1">
  <path fill="#797C7C" d="M10.6 1.3c2.5 0 4.8 1 6.5 2.7 1.7 1.7 2.7 4.1 2.7 6.5s-1 4.8-2.7 6.5c-1.7 1.7-4.1 2.7-6.5 2.7s-4.8-1-6.5-2.7c-1.7-1.7-2.7-4.1-2.7-6.5S2.3 5.8 4 4c1.8-1.7 4.1-2.7 6.6-2.7m0-1.3C4.7 0 0 4.7 0 10.6s4.7 10.6 10.6 10.6 10.6-4.7 10.6-10.6S16.4 0 10.6 0zM9.2 15.2c.1 0 .1 0 0 0 .4 0 .8-.2 1-.5l5.3-6.6c.5-.6.4-1.4-.2-1.9-.6-.5-1.4-.4-1.9.2L9 11.8l-1.6-1.6c-.5-.5-1.4-.5-1.9 0s-.5 1.4 0 1.9l2.6 2.6c.4.3.8.5 1.1.5z"/>
</svg>