<svg class="machine" xmlns="http://www.w3.org/2000/svg" width="100%" height="100%" viewBox="0 0 637.5 198.6">

    <style type="text/css">
    <![CDATA[
            

    ]]>
    </style>

    <path class="pipe-1" fill="#C7CBD1" d="M614 46.4h-17.1l-8.7-5.5c-.6-.4-1.4-.3-1.8.2-.5.5-.6 1.2-.2 1.8 0 .1 3.2 5.3 4.3 8.6 1.2 3.6 1.8 9.4 1.8 9.5.1.7.6 1.2 1.3 1.3h.2c.6 0 1.2-.4 1.4-.9l4.2-10.1h12.3v51.5H409.3V20.5c0-1.4-1.1-2.5-2.5-2.5h-9.4v5h6.9v82.4c0 1.4 1.1 2.5 2.5 2.5H614c1.4 0 2.5-1.1 2.5-2.5V48.9c0-1.4-1.1-2.5-2.5-2.5z"/>
    <path class="pipe-2" fill="#E5E7EA" d="M215.4 153.3H98.7c-1.7 0-3.4-.7-4.6-1.9-1.2-1.2-1.9-2.9-1.9-4.6V41.6h-47v44.5c0 3.6-2.9 6.5-6.5 6.5H17.1v-13h15.1V35.1c0-3.6 2.9-6.5 6.5-6.5h60c1.7 0 3.4.7 4.6 1.9 1.2 1.2 1.9 2.9 1.9 4.6v105.2h103.7V72.9c0-1.7.7-3.4 1.9-4.6 1.2-1.2 2.9-1.9 4.6-1.9h167.5v13h-161v67.4c0 3.6-2.9 6.5-6.5 6.5z"/>
    <path class="pipe-3" fill="#C7CBD1" d="M260.3 154.4H146.9c-1.4 0-2.5-1.1-2.5-2.5V65.2c0-23.2-18.9-42.1-42.1-42.1S60.1 41.9 60.1 65.2h-5c0-26 21.1-47.1 47.1-47.1s47.1 21.1 47.1 47.1v84.2h108.4v-122c0-1.4 1.1-2.5 2.5-2.5h50c1.4 0 2.5 1.1 2.5 2.5v27.5h91.5v5h-94c-1.4 0-2.5-1.1-2.5-2.5V29.9h-45v122c.1 1.4-1 2.5-2.4 2.5z"/>
    <path class="pipe-4" fill="#E5E7EA" d="M555.2 13.7c-.2-.4-.7-.6-1.1-.5l-8.5 2.3h-36.9c-2.8 0-5 2.2-5 5v42h-64.3V56c0-2.8-2.2-5-5-5h-188V16.5c0-2.8-2.2-5-5-5h-79.5c-2.8 0-5 2.2-5 5v111.7H118c-2.8 0-5 2.2-5 5v49.6H68v-45H58v50c0 2.8 2.2 5 5 5h55c2.8 0 5-2.2 5-5v-49.6h38.8c2.8 0 5-2.2 5-5V21.5h69.5V56c0 2.8 2.2 5 5 5h188v6.6c0 2.8 2.2 5 5 5h74.3c2.8 0 5-2.2 5-5v-42h28.1l.1 5c0 .5.3.9.8 1h.2c.4 0 .8-.2.9-.6 0-.1 2.5-5.8 4.5-8.7 2.3-3.2 2.4-3.3 6-6.6l.7-.6c.4-.5.5-1 .3-1.4z"/>
    <path class="pipe-5" fill="#E5E7EA" d="M543.4 41.2c-.3-.3-.8-.4-1.2-.1l-5.6 3.8h-69.4c-3.6 0-6.5 2.9-6.5 6.5v108.3h-71.2V36.3h-13v129.9c0 3.6 2.9 6.5 6.5 6.5h84.2c3.6 0 6.5-2.9 6.5-6.5V57.9h56.7l3.7 10.4c.1.4.5.7.9.7h.1c.5-.1.8-.4.9-.9 0-.1.7-8.6 2.1-13.3 1.6-5.1 5.5-12.2 5.5-12.3.2-.4.1-1-.2-1.3z"/>
    <path class="pipe-6" fill="#C7CBD1" d="M533.7 84.5c-.3-.6-1-1-1.6-.9l-9.2 1.6h-33.6V25.1c0-1.4-1.1-2.5-2.5-2.5h-89.4v5h86.9v60.2c0 1.4 1.1 2.5 2.5 2.5h34l-.5 7.1c-.1.7.4 1.4 1.1 1.6.1 0 .3.1.4.1.5 0 1.1-.3 1.3-.8 0 0 2.4-4.5 4.3-6.6 2-2.4 5.9-5.2 5.9-5.3.4-.5.6-1.3.4-1.9z"/>
  
    <g class="cog-1">
        <path fill="#C7CBD1" d="M232.6 146.5l1.7-11.1-8.2-2.3c0-2.9-.3-5.7-.9-8.6l7.6-4-4.1-10.5-8.2 2.1c0-.1-.1-.1-.1-.2-.1-.2-.2-.4-.3-.5-.1-.1-.1-.2-.2-.3 0-.1-.1-.1-.1-.2-.1-.1-.1-.2-.2-.3-.1-.1-.1-.2-.2-.3-.1-.2-.2-.3-.3-.5-.1-.1-.1-.2-.2-.3-.1-.2-.2-.4-.4-.5-.1-.1-.1-.2-.2-.3-.1-.1-.2-.3-.3-.4l-.2-.2c-.2-.2-.3-.4-.5-.7l-.2-.2-.2-.2c0-.1-.1-.1-.1-.2s-.1-.1-.1-.2c-.3-.3-.5-.6-.8-.9l4.7-7.1-8.7-7.2-6.2 5.8-3.3-1.8h-.1c-.5-.2-1-.5-1.6-.7-.2-.1-.3-.1-.5-.2-.4-.2-.8-.3-1.2-.5l-.9-.3c-.2-.1-.5-.2-.7-.3l.4-8.5-11.1-1.7-2.3 8.2c-3.1 0-6.1.4-9.1 1l-4.1-7.5-10.2 4.4 2.2 8.2h-.1s-.1 0-.1.1l-.9.6c-.1 0-.1.1-.2.1 0 0-.1 0-.1.1-.1.1-.2.1-.3.2-.1 0-.1.1-.2.1-.3.2-.5.3-.8.5-.1 0-.1.1-.2.1-.1.1-.2.2-.4.3-.1.1-.2.1-.3.2-.2.1-.4.3-.6.4-.1 0-.1.1-.2.1-.1.1-.2.1-.2.2-.1 0-.1.1-.2.1l-.2.2c-.1 0-.1.1-.2.1-.1.1-.3.2-.4.3l-.2.2c-.2.2-.4.3-.6.5-.1.1-.2.2-.4.3l-.2.2c-.1.1-.2.1-.2.2-.2.1-.3.3-.5.4l-7.4-4.3-6.7 9 6.2 5.9c-.3.5-.5 1.1-.8 1.6 0 .1-.1.2-.1.3-.2.4-.4.9-.6 1.3-.1.2-.2.4-.2.6-.1.3-.3.7-.4 1l-.3.9c-.1.2-.1.4-.2.5l-8.5-.4-1.7 11.1 8.2 2.3c0 2.9.3 5.8.9 8.6l-7.6 4 4.1 10.5 8.2-2.1c1.3 2.2 2.8 4.2 4.5 6.2l-4.7 7.2 8.7 7.2 6.2-5.9c.4.2.7.4 1.1.6h.1c.5.3 1 .5 1.5.8.1.1.2.1.4.2l1.2.6c.2.1.5.2.7.3.3.1.6.3.9.4.3.1.7.3 1 .4.2.1.4.2.6.2.2.1.4.1.6.2l-.4 8.6 11.1 1.7 2.3-8.2c3 0 6.1-.3 9.1-1l4.1 7.6 10.4-4.2-2.2-8.2c2.7-1.6 5.1-3.5 7.3-5.6l7.4 4.3 6.7-9-6.2-5.9c1.1-2 2-4.2 2.7-6.4l8.9.6z"/>
        <circle fill="#E5E7EA" cx="184.9" cy="133.1" r="37.3"/>
    </g>
  
    <path class="pipe-main" fill="#19A58A" d="M508.1 106.3l-24.7-25.7c-1-1-2.5-1.4-3.8-.8-1.3.5-2.2 1.8-2.2 3.2v12.7H82.3v26h395.1v12.7c0 1.4.9 2.7 2.2 3.2.4.2.9.3 1.3.3.9 0 1.9-.4 2.5-1.1l24.7-25.7c1.3-1.3 1.3-3.4 0-4.8z"/>
    
    <g class="capitol">
        <path fill="#75C9B9" d="M636.8 172.5c.3 1.1.5 2.2.5 3.3 0 4.1-2.2 7.9-5.2 10.7v8.4c0 2-1.6 3.5-3.5 3.5h-126c-2.3 0-4.1-1.9-4.1-4.1v-7.8c-3-2.8-5.2-6.6-5.2-10.7 0-1.1.1-2.2.5-3.3.5-1.7 1.8-3 3.3-4.3 3.6-2.9 8.9-5.4 11-6.3l2.9-.5c.9-.4 1.8-.7 2.7-1v-9.5c-.9.4-1.8.9-2.7 1.4v1h-2.9c-.8-1-1.6-5.1-.3-8 1.3-2.9 4.9-4.8 5.2-4.9.1-4.2 1.4-5 2.8-6.5.7-.8 1-3 1.6-3.3 3.3-12.4 8.8-22.1 14.1-29.2l1.8 1.3-.9 1.2c-4.6 6.5-9.4 15.3-12.4 26.5 3.7-1.6 29.7-7.1 55.3-6.4 20.8.6 35.4 6.4 36.2 6.7-1.3-5-3-9.6-4.9-13.7l2.6-1.1c2.1 4.5 3.9 9.4 5.4 14.8.6 0 1.1 2.9 1.9 3.8 1.3 1.5 3.4 1.6 3.4 5.9.5.3 1.3.8 2 1.4 1.4 1.2 3 3.2 3 5.9 0 1.7-.7 3.6-2.2 5.6v8.6c1.2.5 3.5 1.6 5.9 2.9 1.8 1 3.6 2.1 5.1 3.4 1.3 1.3 2.5 2.6 3.1 4.3zm-20.1-11.9v-9.3c-.3-.2-.5-.3-.8-.5v9.5c.3.1.5.2.8.3zm-7.2-2v-10.3c-.4-.1-.8-.3-1.2-.4v10.4l1.2.3zm-6.8-1.5v-10.7c-.6-.1-1.2-.3-1.8-.4v10.8c.6 0 1.2.2 1.8.3zm-8.9-1.6v-11c-.7-.1-1.4-.3-2.1-.4v11.1l2.1.3zm-8.6-1V143c-1-.2-2-.3-2.8-.4v11.8c.8-.1 1.8 0 2.8.1zm-10.5-.2v-12.7c-1-.1-2.2-.1-3.5-.1v12.6c1.3.1 2.5.1 3.5.2zm-9.6-.4v-12.4c-2.1 0-4.4.1-6.8.2v12.2c2.4-.1 4.7-.1 6.8 0zm-10.4 0v-12.1c-2.5.2-5.1.4-7.8.6v11.8c2.7-.1 5.3-.2 7.8-.3zm-11 .6v-11.7l-6.6.9v11.4c2.3-.2 4.5-.4 6.6-.6zm-8.9 1v-11.3c-2.2.4-4.4.9-6.5 1.4v10.9c2.1-.4 4.3-.7 6.5-1zm-8.6 1.4v-10.8c-1.9.5-3.8 1.1-5.7 1.8v10.3c1.9-.5 3.8-.9 5.7-1.3zm-7.4 1.8v-10.1c-1.4.5-2.7 1.1-4 1.7v9.7c1.3-.5 2.6-.9 4-1.3z"/>
        <path fill="#C6E9E2" d="M616.7 151.3v9.3c-.3-.1-.6-.2-.8-.2v-9.5c.3.1.5.2.8.4z"/>
        <path fill="#C6E9E2" d="M609.5 148.3v10.3l-1.2-.3v-10.4c.4.1.8.3 1.2.4z"/>
        <path fill="#75C9B9" d="M608.9 115.8l-2.6 1.1c-2.4-5.3-5.2-9.9-8.1-13.8-.9-1.2-1.7-2.3-2.6-3.4-3.1-3.8-6-6.6-8.1-8.6-.6-.5-1.1-1-1.5-1.3-.7-.5-22.1-14.8-42.4 1.1-1.6 1.3-3.9 3.5-6.6 6.5l-2.2-.9c3.7-4.3 6.9-7.1 8.5-8.4 0-.2-.1-1.7-.1-1.9 0-1.5.9-2.9 1.9-4.4 2.6-3.9 7.1-8.6 8.6-10.1l.8-8c-1.7-1.4-2.6-3.7-2.5-5.4 0-2.3.4-3.4 1.4-4.8.9-1.2 4.9-5.4 5.9-6.4-.7-1.2-1.2-2.6-1.2-4.1 0-2.8 1.4-5.2 3.6-6.5-.6-2-1-4.4-1-6.9 0-6.6 2.3-11.9 5.2-11.9s5.2 5.3 5.2 11.9c0 2.6-.4 5.1-1 7 2.1 1.4 3.5 3.8 3.5 6.5 0 1.3-.3 2.5-.9 3.6.2.3 6.6 5.7 6.9 11.7.1 1.7-1.3 4-2.9 5.4l.8 7.9c.5.5 2.4 2 4.3 4.1 1.8 2 3.5 4.5 4 5.2 1 1.6 1.9 3.4 1.9 4.9 0 .2.4 1.2.4 1.4 3.5 2.8 13.4 12.6 20.8 28.5zm-31-33.7s-.1-6.3-12.7-6.6c-3.8-.1-7.6 1-10 2.1-6.5 2.9-8.4 8.1-8.4 8.1 15.8-10.8 31.1-3.6 31.1-3.6zm-9.8-12.4L568 62c-5.3-3.1-11.5 1.6-11.5 1.6l-.4 7c4.2-2.2 12-.9 12-.9zm-4.9-12.1s-7.1-2.8-2.9-7.1c0 0-8.9 6-5.1 9.9-.1 0 3.1-2.6 8-2.8z"/>
        <path fill="#C6E9E2" d="M606.3 116.9c1.9 4.1 3.6 8.7 4.9 13.7-.8-.3-15.4-6.1-36.2-6.7-25.6-.7-51.6 4.8-55.3 6.4 3-11.2 7.8-19.9 12.4-26.5l1.2.6c-.1.2-.1.3-.1.5v8.8c0 .7.6 1.2 1.2 1.2h61.5c.7 0 1.2-.6 1.2-1.2v-8.8c0-.3-.1-.7-.4-.9l1.3-.9c3.1 3.9 5.9 8.5 8.3 13.8z"/>
        <path fill="#C6E9E2" d="M602.7 146.4v10.7c-.6-.1-1.2-.2-1.8-.4V146c.6.1 1.2.3 1.8.4z"/>
        <path fill="#C6E9E2" d="M598.3 103.1l-1.3.9c-.2-.2-.5-.4-.9-.4h-61.5c-.5 0-1 .3-1.1.8l-1.2-.6.9-1.2c1.4-2 2.8-3.7 4.2-5.2 2.7-3 5-5.2 6.6-6.5 20.3-15.8 41.6-1.6 42.4-1.1.4.4.9.8 1.5 1.3 2.1 1.9 5 4.8 8.1 8.6.5 1.1 1.4 2.2 2.3 3.4z"/>
        <path fill="#19A58A" d="M597.3 104.9v8.8c0 .7-.6 1.2-1.2 1.2h-61.5c-.7 0-1.2-.6-1.2-1.2v-8.8c0-.2 0-.3.1-.5.2-.4.6-.8 1.1-.8h61.5c.4 0 .7.1.9.4.2.3.3.6.3.9zm-1.2 8.8v-8.8h-61.5v8.8h61.5z"/>
        <path fill="#19A58A" d="M596.1 104.9v8.8h-61.5v-8.8h61.5zm-1.3 7.6v-6.3h-59v6.3h59z"/>
        <path fill="#5CBFAC" d="M535.8 106.2h59v6.3h-59z"/>
        <path fill="#C6E9E2" d="M593.8 144.5v11l-2.1-.3v-11.1c.7.1 1.4.2 2.1.4z"/>
        <path fill="#C6E9E2" d="M585.2 142.9v11.5c-1-.1-2-.2-2.8-.2v-11.8c.8.2 1.8.4 2.8.5z"/>
        <path fill="#C6E9E2" d="M565.2 75.5c12.6.4 12.7 6.6 12.7 6.6s-15.3-7.2-31.1 3.6c0 0 1.9-5.2 8.4-8.1 2.4-1.1 6.2-2.2 10-2.1z"/>
        <path fill="#C6E9E2" d="M574.7 141.6v12.7c-1-.1-2.2-.1-3.5-.2v-12.6c1.3 0 2.5.1 3.5.1z"/>
        <path fill="#C6E9E2" d="M568.1 61.9l.1 7.7s-7.8-1.3-12 .9l.4-7s6.2-4.6 11.5-1.6z"/>
        <path fill="#C6E9E2" d="M565.1 141.5v12.4c-2.1-.1-4.4-.1-6.8 0v-12.2c2.4-.2 4.7-.2 6.8-.2z"/>
        <path fill="#C6E9E2" d="M560.3 50.5c-4.2 4.3 2.9 7.1 2.9 7.1-4.9.2-8.1 2.8-8.1 2.8-3.7-3.9 5.2-9.9 5.2-9.9z"/>
        <path fill="#C6E9E2" d="M554.7 141.8v12.1c-2.5.1-5.1.2-7.8.4v-11.8c2.7-.3 5.3-.5 7.8-.7z"/>
        <path fill="#C6E9E2" d="M543.7 142.8v11.7c-2.2.2-4.4.4-6.6.7v-11.4c2.3-.4 4.5-.7 6.6-1z"/>
        <path fill="#75C9B9" d="M535 96.6l2.2.9c-1.3 1.5-2.7 3.2-4.2 5.2l-1.8-1.3c1.3-1.8 2.6-3.4 3.8-4.8z"/>
        <path fill="#C6E9E2" d="M534.8 144.2v11.3c-2.2.3-4.4.7-6.5 1.1v-10.9c2.1-.6 4.3-1.1 6.5-1.5z"/>
        <path fill="#C6E9E2" d="M526.2 146.2V157c-1.9.4-3.8.8-5.7 1.3V148c1.9-.7 3.8-1.3 5.7-1.8z"/>
        <path fill="#C6E9E2" d="M518.8 148.6v10.1c-1.4.4-2.7.8-4 1.2v-9.7c1.2-.6 2.6-1.1 4-1.6z"/>
        <path fill="#C6E9E2" d="M513.5 150.9v9.5c-.9.3-1.8.6-2.7 1v-9.1c.9-.5 1.8-1 2.7-1.4z"/>
        <path fill="#75C9B9" d="M510.8 153.3v8.1l-2.9.5v-8.6"/>
        <path fill="#C6E9E2" d="M566.2 169.9c-47.5-.4-61.7 11.7-61.7 11.7s21.3-9.7 63.5-9c39.3.6 57.7 8.4 57.7 8.4s-17.6-10.7-59.5-11.1z"/>
    </g>
    
    <g class="letter">
        <path fill="#FFF" d="M1.4 53.3h84.9v108.9H1.4z"/>
        <path fill="#19A58A" d="M86.3 165.6H1.4c-.8 0-1.4-.6-1.4-1.4V53.3c0-.8.6-1.4 1.4-1.4h84.9c.8 0 1.4.6 1.4 1.4v110.9c0 .8-.6 1.4-1.4 1.4zm-83.4-2.9h82v-108h-82v108z"/>
        <path fill="#C6E9E2" d="M2.9 54.7h82v108h-82z"/>
        <path fill="#FFF" d="M2.8 54.7h82v8h-82z" opacity=".5"/>
        <circle fill="#E0522B" cx="6.9" cy="58.7" r="1.3" opacity=".7"/>
        <circle fill="#FFDD13" cx="11.3" cy="58.7" r="1.3" opacity=".7"/>
        <circle fill="#009344" cx="15.8" cy="58.7" r="1.3" opacity=".7"/>
        
        <g opacity=".65">
            <linearGradient id="a" gradientUnits="userSpaceOnUse" x1="17.515" y1="78.037" x2="52.862" y2="78.037">
                <stop offset="0" stop-color="#FFF"/>
                <stop offset="1"/>
            </linearGradient>
            <path fill="url(#a)" d="M17.5 78h35.4"/>
            <path fill="#19A58A" d="M52.9 79.2H17.5c-.6 0-1.1-.5-1.1-1.1s.5-1.1 1.1-1.1h35.3c.6 0 1.1.5 1.1 1.1s-.4 1.1-1 1.1z"/>
            <linearGradient id="b" gradientUnits="userSpaceOnUse" x1="17.515" y1="135.696" x2="38.546" y2="135.696">
                <stop offset="0" stop-color="#FFF"/>
                <stop offset="1"/>
            </linearGradient>
            <path fill="url(#b)" d="M17.5 135.7h21"/>
            <path fill="#19A58A" d="M38.5 136.8h-21c-.6 0-1.1-.5-1.1-1.1s.5-1.1 1.1-1.1h21c.6 0 1.1.5 1.1 1.1s-.4 1.1-1.1 1.1z"/>
            <linearGradient id="c" gradientUnits="userSpaceOnUse" x1="17.515" y1="85.244" x2="68.436" y2="85.244">
                <stop offset="0" stop-color="#FFF"/>
                <stop offset="1"/>
            </linearGradient>
            <path fill="url(#c)" d="M17.5 85.2h50.9"/>
            <path fill="#19A58A" d="M68.4 86.4H17.5c-.6 0-1.1-.5-1.1-1.1s.5-1.1 1.1-1.1h50.9c.6 0 1.1.5 1.1 1.1s-.4 1.1-1.1 1.1z"/>
            <g>
                <linearGradient id="d" gradientUnits="userSpaceOnUse" x1="17.515" y1="92.451" x2="68.436" y2="92.451">
                    <stop offset="0" stop-color="#FFF"/>
                    <stop offset="1"/>
                </linearGradient>
                <path fill="url(#d)" d="M17.5 92.5h50.9"/>
                <path fill="#19A58A" d="M68.4 93.6H17.5c-.6 0-1.1-.5-1.1-1.1s.5-1.1 1.1-1.1h50.9c.6 0 1.1.5 1.1 1.1s-.4 1.1-1.1 1.1z"/>
            </g>
            <g>
                <linearGradient id="e" gradientUnits="userSpaceOnUse" x1="17.515" y1="99.659" x2="68.436" y2="99.659">
                    <stop offset="0" stop-color="#FFF"/>
                    <stop offset="1"/>
                </linearGradient>
                <path fill="url(#e)" d="M17.5 99.7h50.9"/>
                <path fill="#19A58A" d="M68.4 100.8H17.5c-.6 0-1.1-.5-1.1-1.1s.5-1.1 1.1-1.1h50.9c.6 0 1.1.5 1.1 1.1s-.4 1.1-1.1 1.1z"/>
            </g>
            <g>
                <linearGradient id="f" gradientUnits="userSpaceOnUse" x1="17.515" y1="106.866" x2="68.436" y2="106.866">
                    <stop offset="0" stop-color="#FFF"/>
                    <stop offset="1"/>
                </linearGradient>
                <path fill="url(#f)" d="M17.5 106.9h50.9"/>
                <path fill="#19A58A" d="M68.4 108H17.5c-.6 0-1.1-.5-1.1-1.1s.5-1.1 1.1-1.1h50.9c.6 0 1.1.5 1.1 1.1s-.4 1.1-1.1 1.1z"/>
            </g>
            <g>
                <linearGradient id="g" gradientUnits="userSpaceOnUse" x1="17.515" y1="114.074" x2="68.436" y2="114.074">
                    <stop offset="0" stop-color="#FFF"/>
                    <stop offset="1"/>
                </linearGradient>
                <path fill="url(#g)" d="M17.5 114.1h50.9"/>
                <path fill="#19A58A" d="M68.4 115.2H17.5c-.6 0-1.1-.5-1.1-1.1s.5-1.1 1.1-1.1h50.9c.6 0 1.1.5 1.1 1.1s-.4 1.1-1.1 1.1z"/>
            </g>
            <g>
                <linearGradient id="h" gradientUnits="userSpaceOnUse" x1="17.515" y1="121.281" x2="68.436" y2="121.281">
                    <stop offset="0" stop-color="#FFF"/>
                    <stop offset="1"/>
                </linearGradient>
                <path fill="url(#h)" d="M68.4 121.3H17.5"/>
                <path fill="#19A58A" d="M68.4 122.4H17.5c-.6 0-1.1-.5-1.1-1.1s.5-1.1 1.1-1.1h50.9c.6 0 1.1.5 1.1 1.1s-.4 1.1-1.1 1.1z"/>
            </g>
            <g>
                <linearGradient id="i" gradientUnits="userSpaceOnUse" x1="17.515" y1="128.489" x2="68.436" y2="128.489">
                    <stop offset="0" stop-color="#FFF"/>
                    <stop offset="1"/>
                </linearGradient>
                <path fill="url(#i)" d="M17.5 128.5h50.9"/>
                <path fill="#19A58A" d="M68.4 129.6H17.5c-.6 0-1.1-.5-1.1-1.1 0-.6.5-1.1 1.1-1.1h50.9c.6 0 1.1.5 1.1 1.1.1.6-.4 1.1-1.1 1.1z"/>
            </g>
            <g>
                <path fill="#3D87DF" d="M67.8 151.8H47.4c-.3 0-.6-.3-.6-.6v-6.4c0-.3.3-.6.6-.6h20.4c.3 0 .6.3.6.6v6.4c0 .3-.2.6-.6.6z"/>
            </g>
        </g>
    </g>

    <g class="envelope">
        <path fill="#E0522B" d="M604.4 93.5l-16.3-23.4c-.6-.9-1.9-1.1-2.8-.5l-44.1 30.7c-.9.6-1.1 1.9-.5 2.8l6.5 9.4h33.4l23.3-16.2c.9-.6 1.1-1.9.5-2.8z"/>
        <path fill="#AC4025" d="M605.4 92.8l-16.3-23.4c-.6-.9-1.6-1.4-2.7-1.4-.7 0-1.3.2-1.8.6l-44.1 30.7c-1.5 1-1.8 3-.8 4.5l6 8.7h3l-6.8-9.8 21.7 1.6-2.3 8.2h2.6l2.3-8 7.1.5h.4c2.3 0 4.3-1.5 4.9-3.7l2.1-7.5 22 1.8-24.3 16.9h4.4l21.8-15.1c1.5-1.1 1.8-3.1.8-4.6zm-29.2 7.8c-.3 1.2-1.5 2-2.7 1.9l-29.9-2.3 40.8-28.4-8.2 28.8zm11-29.6l15.3 22-21.1-1.7 5.8-20.3z"/>
    </g>
    
    <g class="cog-2">
        <path fill="#C7CBD1" d="M450.1 84.5l4.3-12.7-9.1-4.4c.6-3.3.8-6.8.7-10.2l9.7-3.1-2.6-13.1-10.1.8c0-.1-.1-.2-.1-.2-.1-.2-.2-.5-.3-.7 0-.1-.1-.3-.1-.4 0-.1-.1-.2-.1-.2 0-.1-.1-.2-.1-.3-.1-.1-.1-.3-.2-.4l-.3-.6c0-.1-.1-.2-.1-.3-.1-.2-.2-.5-.3-.7-.1-.1-.1-.2-.2-.3-.1-.2-.2-.3-.3-.5 0-.1-.1-.2-.1-.3-.1-.3-.3-.6-.4-.9 0-.1-.1-.2-.1-.3-.1-.1-.1-.2-.2-.3 0-.1-.1-.1-.1-.2s-.1-.2-.1-.2c-.2-.4-.5-.8-.7-1.3l7-7.4-8.8-10.3-8.4 5.5c-1.1-1-2.3-1.9-3.5-2.7h-.1c-.6-.4-1.1-.8-1.7-1.2-.2-.1-.3-.2-.5-.3-.4-.3-.9-.5-1.3-.8-.3-.2-.6-.4-.9-.5-.3-.2-.5-.3-.8-.5l2.2-9.9-12.7-4.3-4.4 9.1c-3.6-.6-7.2-.9-10.8-.7L391.3 0l-13.1 2.8.9 10h-.1c-.1 0-.1 0-.2.1-.4.2-.8.3-1.2.5-.1 0-.1.1-.2.1h-.1c-.1.1-.2.1-.4.2-.1 0-.2.1-.3.1-.3.1-.7.3-1 .5-.1 0-.1.1-.2.1-.2.1-.3.1-.5.2-.1.1-.3.1-.4.2-.3.1-.5.3-.8.4-.1 0-.1.1-.2.1-.1.1-.2.1-.3.2-.1 0-.1.1-.2.1-.1.1-.2.1-.3.2-.1 0-.2.1-.2.1-.2.1-.4.2-.5.3-.1 0-.2.1-.2.1-.3.2-.5.3-.8.5-.2.1-.3.2-.5.3-.1.1-.2.1-.3.2-.1.1-.2.1-.3.2-.2.1-.4.3-.6.4l-7.7-6.6-9.8 9.2 6 8.1c-.4.6-.9 1.1-1.3 1.7-.1.1-.1.2-.2.3-.3.5-.7 1-1 1.4-.1.2-.3.4-.4.7-.2.4-.5.7-.7 1.1-.2.3-.4.7-.6 1l-.3.6-9.9-2.2-4.3 12.7 9.1 4.4c-.6 3.4-.8 6.9-.7 10.3l-9.7 3.1 2.6 13.1 10.1-.8c1 2.8 2.4 5.5 3.9 8.2l-7 7.4 8.7 10.2 8.5-5.6c.4.3.8.7 1.2 1 0 0 .1 0 .1.1.5.4 1.1.8 1.6 1.2.1.1.3.2.4.3.4.3.9.6 1.3.9.2.2.5.3.7.5.3.2.7.4 1 .6.4.2.7.4 1.1.7.2.1.5.3.7.4.2.1.5.3.7.4l-2.2 9.9 12.7 4.3 4.4-9.1c3.5.6 7.2.9 10.8.7l3.2 9.7 13.1-2.8-.9-10.1c3.5-1.3 6.7-3 9.7-5l7.7 6.6 9.8-9.2-6-8.2c1.7-2.2 3.2-4.5 4.5-6.9l9.9 2.3z"/>
        <circle fill="#E5E7EA" cx="397.3" cy="59" r="42.3"/>
    </g>
</svg>