<svg version="1.1" class="opencongress-logo" xmlns="http://www.w3.org/2000/svg" xmlns:xlink="http://www.w3.org/1999/xlink" x="0px"
		 y="0px" viewBox="0 0 600 191" enable-background="new 0 0 600 191" xml:space="preserve">
	<g id="Logomark">
		<polyline fill-rule="evenodd" clip-rule="evenodd" fill="#6b8797" points="31.293,84.494 27.995,90.48 21.284,91.766 
			25.956,96.757 25.107,103.535 31.293,100.63 37.479,103.535 36.63,96.757 41.3,91.766 34.59,90.48 31.293,84.494 	"/>
		<polyline fill-rule="evenodd" clip-rule="evenodd" fill="#6b8797" points="90.949,142.88 87.648,148.863 80.94,150.153 
			85.609,155.142 84.762,161.918 90.949,159.021 97.132,161.918 96.285,155.142 100.958,150.153 94.246,148.863 90.949,142.88 	"/>
		<polyline fill-rule="evenodd" clip-rule="evenodd" fill="#6b8797" points="90.949,24.843 87.648,30.825 80.94,32.11 85.609,37.097 
			84.762,43.879 90.949,40.975 97.132,43.879 96.285,37.097 100.958,32.11 94.246,30.825 90.949,24.843 	"/>
		<polyline fill-rule="evenodd" clip-rule="evenodd" fill="#6b8797" points="49.061,42.61 45.765,48.593 39.053,49.883 
			43.726,54.867 42.878,61.647 49.061,58.746 55.249,61.647 54.401,54.867 59.07,49.883 52.362,48.593 49.061,42.61 	"/>
		<polyline fill-rule="evenodd" clip-rule="evenodd" fill="#6b8797" points="49.061,125.111 45.765,131.095 39.053,132.384 
			43.726,137.369 42.878,144.151 49.061,141.247 55.249,144.151 54.401,137.369 59.07,132.384 52.362,131.095 49.061,125.111 	"/>
		<polyline fill-rule="evenodd" clip-rule="evenodd" fill="#6b8797" points="35.103,107.339 31.801,113.327 25.094,114.612 
			29.762,119.601 28.915,126.383 35.103,123.48 41.286,126.383 40.438,119.601 45.11,114.612 38.398,113.327 35.103,107.339 	"/>
		<polyline fill-rule="evenodd" clip-rule="evenodd" fill="#6b8797" points="35.103,61.647 31.801,67.629 25.094,68.921 
			29.762,73.909 28.915,80.686 35.103,77.786 41.286,80.686 40.438,73.909 45.11,68.921 38.398,67.629 35.103,61.647 	"/>
		<polyline fill-rule="evenodd" clip-rule="evenodd" fill="#6b8797" points="68.1,139.071 64.802,145.055 58.091,146.346 
			62.764,151.333 61.915,158.108 68.1,155.211 74.288,158.108 73.439,151.333 78.112,146.346 71.4,145.055 68.1,139.071 	"/>
		<polyline fill-rule="evenodd" clip-rule="evenodd" fill="#6b8797" points="68.1,29.915 64.802,35.898 58.091,37.188 62.764,42.177 
			61.915,48.954 68.1,46.055 74.288,48.954 73.439,42.177 78.112,37.188 71.4,35.898 68.1,29.915 	"/>
		<polyline fill-rule="evenodd" clip-rule="evenodd" fill="#6b8797" points="133.529,148.609 136.83,142.627 143.537,141.338 
			138.87,136.35 139.716,129.57 133.529,132.472 127.346,129.57 128.193,136.35 123.521,141.338 130.233,142.627 133.529,148.609 	
			"/>
		<polyline fill-rule="evenodd" clip-rule="evenodd" fill="#6b8797" points="133.529,66.108 136.83,60.125 143.537,58.836 
			138.87,53.846 139.716,47.069 133.529,49.968 127.346,47.069 128.193,53.846 123.521,58.836 130.233,60.125 133.529,66.108 	"/>
		<polyline fill-rule="evenodd" clip-rule="evenodd" fill="#6b8797" points="114.491,52.146 117.792,46.161 124.5,44.875 
			119.832,39.887 120.679,33.106 114.491,36.01 108.304,33.106 109.151,39.887 104.483,44.875 111.191,46.161 114.491,52.146 	"/>
		<polyline fill-rule="evenodd" clip-rule="evenodd" fill="#6b8797" points="114.491,161.301 117.792,155.317 124.5,154.03 
			119.832,149.042 120.679,142.262 114.491,145.165 108.304,142.262 109.151,149.042 104.483,154.03 111.191,155.317 
			114.491,161.301 	"/>
		<polyline fill-rule="evenodd" clip-rule="evenodd" fill="#6b8797" points="90.438,65.916 81.331,82.435 62.809,85.993 75.7,99.757 
			73.362,118.472 90.438,110.46 107.514,118.472 105.172,99.757 118.066,85.993 99.544,82.435 90.438,65.916 	"/>
	</g>
	<path id="Logotype" fill="#6b8797" d="M155.446,119.195c-7.46,0-20.253-2.998-20.253-19.588c0-16.924,13.124-28.65,28.583-28.65
		c10.194,0,18.722,6.799,18.722,18.923C182.498,112.47,163.374,119.195,155.446,119.195L155.446,119.195z M161.645,74.956
		c-10.394,0-16.323,13.659-16.323,26.248c0,8.33,3.33,13.992,10.123,13.992c12.597,0,16.926-18.188,16.926-27.049
		C172.372,80.751,169.04,74.956,161.645,74.956L161.645,74.956z M198.42,119.195c-1.869,0-3.668-0.732-5.265-1.198l-1.734,9.128
		c-0.598,3.064-0.13,3.266,0.668,3.732c0.865,0.729,2.93,0.862,2.732,1.729l-0.466,1.534c-0.136,0.602-0.333,0.933-1.266,0.933
		h-10.462c-1.4,0.066-1.798-0.668-1.532-2.13l7.794-39.911c0.602-3.065,0.135-3.263-0.665-3.732
		c-0.868-0.732-2.864-0.866-2.667-1.732l0.467-1.531c0.136-0.601,0.267-0.934,1.266-0.934h10.26c1.466-0.066,1.733,0.667,1.466,2.065
		l-0.265,2.999l0.134,0.134c3.995-4.531,9.461-5.997,12.525-5.997c5.196,0,9.46,4.53,9.46,11.861
		C220.873,107.802,210.745,119.195,198.42,119.195L198.42,119.195z M206.213,89.614c-7.994,0-11.059,15.59-11.059,19.257
		c0,2.063-0.402,5.928,3.93,6.325c5.998,0.67,12.193-7.663,12.193-17.389C211.277,90.611,207.349,89.614,206.213,89.614
		L206.213,89.614z M232.596,103.736c-0.999,4.668,1.331,10.531,7.063,10.531c2.463,0,5.397-1.268,7.326-2.533
		c1.137-0.666,2.668-0.2,2.467,0.864l-0.467,1.936c-0.132,0.799-0.597,1.531-1.934,2.131c-2.196,0.934-5.528,2.53-11.059,2.53
		c-8.261,0-13.19-5.729-13.19-14.39c0-10.263,8.727-20.523,20.652-20.523c6.931,0,9.862,3.864,9.862,7.863
		C253.316,98.607,242.92,104.27,232.596,103.736L232.596,103.736z M242.724,87.879c-4.933,0-8.596,5.397-9.662,11.064
		c6.397,0,13.39-2.867,13.39-7.332C246.452,89.346,244.919,87.879,242.724,87.879L242.724,87.879z M293.089,115.731l-10.793,3.465
		c-2.134,0-2.863-1.198-2.532-2.733l3.331-17.186c1.201-6.398,0.664-9.463-2.933-9.463c-1.931,0-4.396,1.798-6.26,4.131
		c-2.935,3.596-4.397,8.064-5.396,13.525l-2.065,10.928h-9.195l4.863-25.386c0.533-3.065,0.131-3.263-0.732-3.732
		c-0.8-0.732-2.865-0.866-2.668-1.732l0.467-1.531c0.134-0.601,0.335-0.934,1.266-0.934h10.861c0.664,0,1.464-0.066,1.197,1.334
		l-1.129,5.73l0.129,0.135l2.136-2.935c2.532-2.265,6.929-4.927,11.929-5.062c5.993,0,8.857,3.864,7.325,11.66l-2.598,13.259
		c-0.468,2.463-0.268,3.331,1.532,3.131c1.597-0.268,2.798-0.799,2.998,0l0.268,1.935
		C295.089,115.13,294.153,115.333,293.089,115.731L293.089,115.731z M344.323,75.619l-1.066,5.934c0,0.197-0.202,0.398-0.401,0.601
		l-1.467,0.998c-1.533,1.067-0.929-8.394-11.59-8.394c-12.994,0-19.256,13.525-19.256,23.187c0,9.661,5.398,16.786,13.724,16.786
		c4.329,0,8.264-1.866,11.796-5.326c0.665-0.669,3.33,0.798,2.598,1.93l-2.8,4.663c-0.4,0.601-0.799,1.068-1.466,1.4
		c-1.599,0.798-5.728,1.798-10.727,1.798c-17.19,0-23.652-10.791-23.652-20.654c0-11.991,9.393-27.584,30.581-27.584
		c7.194,0,11.793,2.332,13.395,3.333C344.589,74.623,344.387,75.153,344.323,75.619L344.323,75.619z M356.778,119.195
		c-9.53,0-13.927-6.597-13.927-13.395c0-13.058,9.727-21.518,20.588-21.518c8.664,0,13.524,5.928,13.524,13.589
		C376.964,109.137,368.24,119.195,356.778,119.195L356.778,119.195z M361.773,88.481c-4.598,0-9.327,7.93-9.327,16.925
		c0,5.193,1.6,9.595,5.864,9.595c6.26,0,9.059-11.33,9.059-18.727C367.369,91.28,365.306,88.481,361.773,88.481L361.773,88.481z
		 M414.141,115.731l-10.791,3.465c-2.137,0-2.868-1.198-2.531-2.733l3.329-17.186c1.197-6.398,0.663-9.463-2.935-9.463
		c-1.929,0-4.395,1.798-6.26,4.131c-2.934,3.596-4.401,8.064-5.397,13.525l-2.067,10.928h-9.195l4.867-25.386
		c0.535-3.065,0.131-3.263-0.732-3.732c-0.8-0.732-2.868-0.866-2.67-1.732l0.468-1.531c0.136-0.601,0.332-0.934,1.268-0.934h10.86
		c0.664,0,1.462-0.066,1.197,1.334l-1.131,5.73l0.131,0.135l2.136-2.935c2.53-2.265,6.929-4.927,11.922-5.062
		c5.999,0,8.864,3.864,7.329,11.66l-2.597,13.259c-0.468,2.463-0.268,3.331,1.532,3.131c1.599-0.268,2.8-0.799,2.999,0l0.268,1.935
		C416.142,115.13,415.207,115.333,414.141,115.731L414.141,115.731z M456.914,91.678l-3.932,20.988
		c-3.333,17.925-11.393,22.387-20.189,22.387c-5.462,0-8.994-1.332-12.994-3.333c-0.663-0.331-1.265-0.997-0.997-2.263l1.4-3.665
		c0.531-1.266,1.329-1,2.33-0.134c2.267,1.732,6.131,3.329,9.13,3.329c6.795,0,9.661-4.527,11.124-11.389l1.603-7.732l-0.135-0.13
		c-2.468,4.661-8.331,9.459-12.859,9.459c-4.667,0-10.263-3.862-10.263-12.525c0-10.259,9.065-22.387,24.719-22.387
		c3.2,0,5.997,0.732,8.329,1.797C456.044,87.282,457.644,87.348,456.914,91.678L456.914,91.678z M442.721,87.879
		c-5.332,0-11.991,7.266-11.991,18.591c0,1.8,0.329,6.929,4.194,6.929c5.064,0,12.395-11.525,12.395-20.188
		C447.318,89.614,445.252,87.879,442.721,87.879L442.721,87.879z M487.826,90.748l-1.936,1.996c-0.663,0.799-1.462,0.467-2.664,0
		c-3.733-1.332-6.529-0.265-8.459,2.531c-1.669,2.332-2.468,6.466-3.534,12.195l-2.065,10.928h-9.128l4.798-25.386
		c0.597-3.065,0.129-3.263-0.669-3.732c-0.862-0.732-2.93-0.866-2.732-1.732l0.467-1.531c0.138-0.601,0.337-0.934,1.268-0.934h10.861
		c0.664,0,1.468-0.066,1.196,1.334l-0.932,5.327l0.134,0.135c3.265-4.928,7.661-7.595,10.062-7.595c1.928,0,2.396,1.4,2.929,2.732
		l0.669,2.931C488.157,90.211,488.023,90.548,487.826,90.748L487.826,90.748z M496.481,103.736c-1,4.668,1.333,10.531,7.065,10.531
		c2.467,0,5.396-1.268,7.331-2.533c1.13-0.666,2.661-0.2,2.462,0.864l-0.466,1.936c-0.134,0.799-0.601,1.531-1.933,2.131
		c-2.198,0.934-5.529,2.53-11.058,2.53c-8.266,0-13.193-5.729-13.193-14.39c0-10.263,8.728-20.523,20.655-20.523
		c6.929,0,9.858,3.864,9.858,7.863C517.203,98.607,506.811,104.27,496.481,103.736L496.481,103.736z M506.609,87.879
		c-4.928,0-8.595,5.397-9.66,11.064c6.397,0,13.39-2.867,13.39-7.332C510.339,89.346,508.808,87.879,506.609,87.879L506.609,87.879z
		 M543.987,86.95l-0.735,2.93c-0.667,1.998-0.602,2.998-1.4,2.998h-1.267c-0.533,0-0.864-0.331-0.932-0.799
		c-0.4-2.934-2.199-4.597-4.861-4.597c-2.068,0-4.065,1.396-4.332,3.065c-0.536,3.196,1.799,4.798,4.396,7.059
		c4.599,3.999,7.528,7.93,6.262,13.127c-1.533,6.397-9.193,8.462-14.326,8.462c-5.26,0-8.396-1.332-9.325-2.13l-0.933-5.13
		c-0.131-0.602-0.131-1.001,0.331-1.336l2.001-1.398c0.4-0.265,0.732-0.265,0.997,0.131l2.131,3.468
		c1.534,2.266,3.065,2.93,5.066,2.93c2.065,0,4.933-1,5.466-4.662c0.462-3.267-3.002-6.196-5.397-8.261
		c-2.666-2.401-6.331-5.599-5.135-10.93c1.136-5.13,7.467-7.595,13.33-7.595c3.396,0,5.598,0.531,7.325,0.999
		C543.449,85.483,544.253,86.151,543.987,86.95L543.987,86.95z M572.164,86.95l-0.732,2.93c-0.663,1.998-0.6,2.998-1.398,2.998
		h-1.266c-0.534,0-0.865-0.331-0.935-0.799c-0.398-2.934-2.195-4.597-4.863-4.597c-2.065,0-4.066,1.396-4.331,3.065
		c-0.533,3.196,1.8,4.798,4.396,7.059c4.597,3.999,7.53,7.93,6.266,13.127c-1.534,6.397-9.194,8.462-14.324,8.462
		c-5.267,0-8.395-1.332-9.33-2.13l-0.932-5.13c-0.134-0.602-0.134-1.001,0.332-1.336l2-1.398c0.397-0.265,0.733-0.265,1.001,0.131
		l2.131,3.468c1.531,2.266,3.062,2.93,5.063,2.93c2.064,0,4.93-1,5.461-4.662c0.468-3.267-2.994-6.196-5.396-8.261
		c-2.663-2.401-6.33-5.599-5.129-10.93c1.134-5.13,7.46-7.595,13.324-7.595c3.401,0,5.596,0.531,7.329,0.999
		C571.63,85.483,572.432,86.151,572.164,86.95L572.164,86.95z"/>
	</svg>